# xmcd
# 
# Track frame offsets:
#     150
#     23970
#     52592
#     91367
#     122245
#     142162
# 
# Disc length: 2716
# 
# Revision: 9
# Processed by: cddbd v1.5.2PL0 Copyright (c) Steve Scherf et al.
# Submitted via: fre:ac v1.0.27
# 
DISCID=4c0a9a06
DTITLE=Lynyrd Skynyrd - One More From The Road
DYEAR=1976
DGENRE=Rock
TTITLE0=Gimme Three Steps
TTITLE1=Call Me The Breeze
TTITLE2=T For Texas (Blue Yodel No. 1)
TTITLE3=Sweet Home Alabama
TTITLE4=Crossroads
TTITLE5=Free Bird
EXTD=
EXTT0=
EXTT1=
EXTT2=
EXTT3=
EXTT4=
EXTT5=
PLAYORDER=
